<?xml version="1.0" encoding="UTF-8" standalone="no"?>
<!-- Created with Inkscape (http://www.inkscape.org/) -->

<svg
   width="210mm"
   height="210mm"
   viewBox="0 0 210 210"
   version="1.1"
   id="svg1"
   inkscape:version="1.4.3 (0d15f75042, 2025-12-25)"
   sodipodi:docname="chronicheartblue.svg"
   xmlns:inkscape="http://www.inkscape.org/namespaces/inkscape"
   xmlns:sodipodi="http://sodipodi.sourceforge.net/DTD/sodipodi-0.dtd"
   xmlns="http://www.w3.org/2000/svg"
   xmlns:svg="http://www.w3.org/2000/svg">
  <sodipodi:namedview
     id="namedview1"
     pagecolor="#505050"
     bordercolor="#eeeeee"
     borderopacity="1"
     inkscape:showpageshadow="0"
     inkscape:pageopacity="0"
     inkscape:pagecheckerboard="0"
     inkscape:deskcolor="#505050"
     inkscape:document-units="mm"
     inkscape:zoom="0.55074337"
     inkscape:cx="88.970658"
     inkscape:cy="369.50059"
     inkscape:window-width="1920"
     inkscape:window-height="996"
     inkscape:window-x="0"
     inkscape:window-y="0"
     inkscape:window-maximized="1"
     inkscape:current-layer="layer1" />
  <defs
     id="defs1">
    <linearGradient
       id="swatch89"
       inkscape:swatch="solid">
      <stop
         style="stop-color:#ffffff;stop-opacity:1;"
         offset="0"
         id="stop89" />
    </linearGradient>
    <clipPath
       clipPathUnits="userSpaceOnUse"
       id="clipPath5">
      <rect
         style="fill:#000000;stroke:#000000;stroke-width:0;stroke-linejoin:bevel;paint-order:stroke markers fill;stop-color:#000000"
         id="rect5-4"
         width="20"
         height="200"
         x="530"
         y="595" />
    </clipPath>
    <clipPath
       clipPathUnits="userSpaceOnUse"
       id="clipPath15">
      <rect
         style="fill:none;stroke:#000000;stroke-linecap:butt;stroke-linejoin:bevel;paint-order:stroke markers fill;stop-color:#000000"
         id="rect15-7"
         width="45.034248"
         height="38.955639"
         x="262.48285"
         y="121.00073" />
    </clipPath>
    <clipPath
       clipPathUnits="userSpaceOnUse"
       id="clipPath25">
      <rect
         style="fill:#ff0000;stroke:none;stroke-width:3;stroke-linecap:square;stroke-linejoin:miter;paint-order:stroke markers fill;stop-color:#000000"
         id="rect25-8"
         width="78"
         height="45.033199"
         x="763.61322"
         y="452.82422" />
    </clipPath>
    <clipPath
       clipPathUnits="userSpaceOnUse"
       id="clipPath24">
      <rect
         style="fill:none;stroke:#000000;stroke-width:0.999999;stroke-linecap:butt;stroke-linejoin:bevel;paint-order:stroke markers fill;stop-color:#000000"
         id="rect24"
         width="44.999748"
         height="77.937294"
         x="251.53429"
         y="222.73541" />
    </clipPath>
    <linearGradient
       id="swatch2"
       inkscape:swatch="solid">
      <stop
         style="stop-color:#ffffff;stop-opacity:1;"
         offset="0"
         id="stop2" />
    </linearGradient>
  </defs>
  <g
     inkscape:label="Layer 1"
     inkscape:groupmode="layer"
     id="layer1">
    <path
       id="path118"
       style="baseline-shift:baseline;display:inline;overflow:visible;opacity:1;vector-effect:none;fill:#2563eb;fill-rule:evenodd;stroke-linecap:round;stroke-linejoin:round;enable-background:accumulate;stop-color:#000000;stop-opacity:1"
       d="M 33.168001 2.3869344 C 27.019264 2.6934403 21.43599 4.3258783 16.613456 7.4899821 C 6.9683882 13.81819 2.7043708 24.852015 1.6934367 36.126994 C 0.68250254 47.401974 2.4738065 59.855079 6.0197876 72.996061 C 13.11175 99.278023 27.438206 128.26787 45.140397 151.59178 C 55.91404 165.78683 67.87687 178.35018 81.075155 186.12146 L 98.239482 203.80823 A 8.8058085 5.0967668 0 0 0 113.48816 203.91262 L 133.78357 184.11073 C 145.28124 176.28986 155.80521 164.95327 165.38887 152.3261 C 183.09106 129.00219 197.41803 100.01234 204.51 73.730383 C 208.05598 60.5894 209.84884 48.138364 208.8379 36.863383 C 207.82697 25.588403 203.56295 14.554579 193.91788 8.2263713 C 189.09534 5.0622674 183.51207 3.4277626 177.36333 3.1212565 C 171.21459 2.8147503 164.49989 3.8363992 157.41778 5.9805135 C 143.25355 10.268742 126.6351 19.068913 106.20489 33.390727 A 10.72125 10.72125 0 0 0 105.67985 33.783468 A 10.72125 10.72125 0 0 1 106.06381 34.211865 A 10.72125 10.72125 0 0 0 104.32438 32.656405 C 83.894177 18.334597 67.275714 9.5323532 53.111487 5.2441243 C 46.029374 3.1000099 39.316737 2.0804284 33.168001 2.3869344 z M 49.35151 25.18761 C 49.629625 25.724082 49.893741 26.274844 50.143709 26.839189 C 50.584372 26.996132 51.031258 27.159777 51.484713 27.330115 L 50.356099 27.330115 C 50.044612 26.593302 49.709712 25.878567 49.35151 25.18761 z M 39.486479 27.383341 A 5.7276726 5.7276726 0 0 0 39.215694 27.437085 A 5.7276726 5.7276726 0 0 1 39.486479 27.383341 z M 38.722701 27.541988 A 5.7276726 5.7276726 0 0 0 38.437447 27.63914 A 5.7276726 5.7276726 0 0 1 38.722701 27.541988 z M 37.99458 27.799854 A 5.7276726 5.7276726 0 0 0 37.638529 27.975553 A 5.7276726 5.7276726 0 0 1 37.926367 27.824658 A 5.7276726 5.7276726 0 0 1 37.99458 27.799854 z M 37.339323 28.132133 A 5.7276726 5.7276726 0 0 0 37.00601 28.354342 A 5.7276726 5.7276726 0 0 1 37.339323 28.132133 z M 36.72489 28.551746 A 5.7276726 5.7276726 0 0 0 36.425684 28.814262 A 5.7276726 5.7276726 0 0 1 36.72489 28.551746 z M 36.173503 29.043188 A 5.7276726 5.7276726 0 0 0 35.900651 29.354797 A 5.7276726 5.7276726 0 0 1 36.173503 29.043188 z M 35.689294 29.603878 A 5.7276726 5.7276726 0 0 0 35.457267 29.95011 A 5.7276726 5.7276726 0 0 1 35.689294 29.603878 z M 35.280534 30.221928 A 5.7276726 5.7276726 0 0 0 35.101217 30.58573 A 5.7276726 5.7276726 0 0 1 35.280534 30.221928 z M 34.954456 30.891138 A 5.7276726 5.7276726 0 0 0 34.824748 31.27251 A 5.7276726 5.7276726 0 0 1 34.954456 30.891138 z M 34.718811 31.59187 A 5.7276726 5.7276726 0 0 0 34.628894 32.043005 A 5.7276726 5.7276726 0 0 1 34.718811 31.59187 z M 34.575667 32.317924 A 5.7276726 5.7276726 0 0 0 34.527091 33.056897 A 5.7276726 5.7276726 0 0 1 34.575667 32.317924 z M 106.48601 34.682121 A 10.72125 10.72125 0 0 1 106.93921 35.304305 A 10.72125 10.72125 0 0 0 106.48601 34.682121 z M 107.28958 35.812284 A 10.72125 10.72125 0 0 1 107.66165 36.49648 A 10.72125 10.72125 0 0 0 107.28958 35.812284 z M 107.94225 37.0396 A 10.72125 10.72125 0 0 1 108.2275 37.784774 A 10.72125 10.72125 0 0 0 107.94225 37.0396 z M 55.074158 38.337712 A 5.7276726 5.7276726 0 0 0 54.80389 38.391455 A 5.7276726 5.7276726 0 0 1 55.074158 38.337712 z M 108.42956 38.338228 A 10.72125 10.72125 0 0 1 108.62489 39.15885 A 10.72125 10.72125 0 0 0 108.42956 38.338228 z M 54.312447 38.496875 A 5.7276726 5.7276726 0 0 0 54.013241 38.598678 A 5.7276726 5.7276726 0 0 1 54.312447 38.496875 z M 53.579675 38.757324 A 5.7276726 5.7276726 0 0 0 53.230859 38.929407 A 5.7276726 5.7276726 0 0 1 53.504228 38.785229 A 5.7276726 5.7276726 0 0 1 53.579675 38.757324 z M 52.923385 39.092187 A 5.7276726 5.7276726 0 0 0 52.600924 39.307161 A 5.7276726 5.7276726 0 0 1 52.923385 39.092187 z M 52.313603 39.509216 A 5.7276726 5.7276726 0 0 0 52.013363 39.772766 A 5.7276726 5.7276726 0 0 1 52.313603 39.509216 z M 108.74478 39.68905 A 10.72125 10.72125 0 0 1 108.844 40.654883 A 10.72125 10.72125 0 0 0 108.74478 39.68905 z M 51.762732 40.001693 A 5.7276726 5.7276726 0 0 0 51.497632 40.304 A 5.7276726 5.7276726 0 0 1 51.762732 40.001693 z M 51.279557 40.562382 A 5.7276726 5.7276726 0 0 0 51.048564 40.908097 A 5.7276726 5.7276726 0 0 1 51.279557 40.562382 z M 108.88379 41.068811 A 10.72125 10.72125 0 0 1 108.84245 42.459424 C 113.95374 42.732866 117.59392 43.668671 119.31675 44.274817 C 120.37713 44.647891 121.05984 44.957578 121.54607 45.222046 L 121.54607 48.848181 C 122.13827 48.442624 122.72635 48.042476 123.3103 47.648254 L 123.3103 49.378898 L 121.54607 49.378898 L 121.54607 60.410266 L 121.54607 68.362752 L 121.54607 92.90234 L 121.54607 102.93325 L 121.54607 104.35539 L 121.54607 126.03313 C 121.21413 126.21568 120.78894 126.41999 120.2092 126.65222 C 119.93582 126.76172 119.62808 126.87738 119.27954 127 C 117.5512 127.6081 113.89283 128.54873 108.75564 128.81901 C 107.84163 128.86711 106.8808 128.89394 105.87571 128.89394 C 99.221468 128.89394 94.511872 127.71629 92.476009 127 C 91.762679 126.74904 91.219662 126.52719 90.792391 126.32821 L 90.792391 107.65028 L 90.792391 104.19364 L 90.792391 102.63818 L 90.792391 68.619584 L 90.792391 44.964697 C 91.225239 44.76112 91.779036 44.533124 92.513216 44.274817 C 93.073912 44.077547 93.837393 43.845235 94.788529 43.612325 C 97.290911 42.999553 101.09185 42.381909 105.91343 42.381909 C 106.93654 42.381909 107.91379 42.409744 108.84245 42.459424 A 10.72125 10.72125 0 0 0 108.88379 41.068811 z M 50.873381 41.178365 A 5.7276726 5.7276726 0 0 0 50.686829 41.555603 A 5.7276726 5.7276726 0 0 1 50.873381 41.178365 z M 50.547819 41.846025 A 5.7276726 5.7276726 0 0 0 50.412427 42.243933 A 5.7276726 5.7276726 0 0 1 50.547819 41.846025 z M 50.312691 42.546757 A 5.7276726 5.7276726 0 0 0 50.224841 42.986523 A 5.7276726 5.7276726 0 0 1 50.312691 42.546757 z M 50.169548 43.273844 A 5.7276726 5.7276726 0 0 0 50.120972 44.009717 A 5.7276726 5.7276726 0 0 1 50.169548 43.273844 z M 185.01765 84.28116 A 5.7276726 5.7276726 0 0 1 184.96959 85.012899 A 5.7276726 5.7276726 0 0 0 185.01765 84.28116 z M 184.92876 85.229423 A 5.7276726 5.7276726 0 0 1 184.83006 85.72655 A 5.7276726 5.7276726 0 0 0 184.92876 85.229423 z M 184.7417 86.003019 A 5.7276726 5.7276726 0 0 1 184.59907 86.422632 A 5.7276726 5.7276726 0 0 0 184.7417 86.003019 z M 184.47143 86.697034 A 5.7276726 5.7276726 0 0 1 184.28281 87.079439 A 5.7276726 5.7276726 0 0 0 184.47143 86.697034 z M 184.11279 87.351257 A 5.7276726 5.7276726 0 0 1 183.88645 87.691288 A 5.7276726 5.7276726 0 0 0 184.11279 87.351257 z M 183.67871 87.94657 A 5.7276726 5.7276726 0 0 1 183.41206 88.250427 A 5.7276726 5.7276726 0 0 0 183.67871 87.94657 z M 183.17693 88.47522 A 5.7276726 5.7276726 0 0 1 182.87101 88.74342 A 5.7276726 5.7276726 0 0 0 183.17693 88.47522 z M 182.60798 88.939274 A 5.7276726 5.7276726 0 0 1 182.41419 89.082935 A 5.7276726 5.7276726 0 0 1 182.26639 89.167167 A 5.7276726 5.7276726 0 0 0 182.60798 88.939274 z M 182.01525 89.310828 A 5.7276726 5.7276726 0 0 1 181.63749 89.49738 A 5.7276726 5.7276726 0 0 0 182.01525 89.310828 z M 181.36567 89.613652 A 5.7276726 5.7276726 0 0 1 180.96156 89.751111 A 5.7276726 5.7276726 0 0 0 181.36567 89.613652 z M 180.69181 89.830693 A 5.7276726 5.7276726 0 0 1 180.22931 89.923193 A 5.7276726 5.7276726 0 0 0 180.69181 89.830693 z M 179.99625 89.963501 A 5.7276726 5.7276726 0 0 1 179.29087 90.01001 A 5.7276726 5.7276726 0 0 0 179.99625 89.963501 z M 167.9422 94.832971 A 5.7276726 5.7276726 0 0 1 167.88123 95.139412 A 5.7276726 5.7276726 0 0 0 167.9422 94.832971 z M 167.79389 95.571427 A 5.7276726 5.7276726 0 0 1 167.68796 95.88407 A 5.7276726 5.7276726 0 0 0 167.79389 95.571427 z M 167.5474 96.28973 A 5.7276726 5.7276726 0 0 1 167.41872 96.550696 A 5.7276726 5.7276726 0 0 0 167.5474 96.28973 z M 167.20995 96.966174 A 5.7276726 5.7276726 0 0 1 167.02443 97.24316 A 5.7276726 5.7276726 0 0 0 167.20995 96.966174 z M 166.7893 97.587842 A 5.7276726 5.7276726 0 0 1 166.56038 97.849325 A 5.7276726 5.7276726 0 0 0 166.7893 97.587842 z M 166.28494 98.155249 A 5.7276726 5.7276726 0 0 1 166.02346 98.384692 A 5.7276726 5.7276726 0 0 0 166.28494 98.155249 z M 165.71702 98.646175 A 5.7276726 5.7276726 0 0 1 165.41626 98.847196 A 5.7276726 5.7276726 0 0 0 165.71702 98.646175 z M 165.08346 99.061654 A 5.7276726 5.7276726 0 0 1 164.76514 99.21875 A 5.7276726 5.7276726 0 0 0 165.08346 99.061654 z M 164.40392 99.388765 A 5.7276726 5.7276726 0 0 1 164.35328 99.412537 A 5.7276726 5.7276726 0 0 1 163.97604 99.533976 A 5.7276726 5.7276726 0 0 0 164.40392 99.388765 z M 163.71507 99.618209 A 5.7276726 5.7276726 0 0 1 163.22415 99.715877 A 5.7276726 5.7276726 0 0 0 163.71507 99.618209 z M 162.99419 99.758769 A 5.7276726 5.7276726 0 0 1 162.26555 99.806828 A 5.7276726 5.7276726 0 0 0 162.99419 99.758769 z M 63.813159 107.65028 L 68.203589 107.65028 C 68.188059 107.71528 68.17245 107.78043 68.15708 107.84561 L 63.878788 107.84561 L 63.813159 107.65028 z M 58.025399 116.73241 A 5.5156014 5.5156014 0 0 0 57.275057 116.78564 A 5.5156014 5.5156014 0 0 1 58.025399 116.73241 z M 57.033211 116.8337 A 5.5156014 5.5156014 0 0 0 56.539185 116.94015 A 5.5156014 5.5156014 0 0 1 57.033211 116.8337 z M 56.260132 117.03523 A 5.5156014 5.5156014 0 0 0 55.82915 117.19388 A 5.5156014 5.5156014 0 0 1 55.911316 117.15357 A 5.5156014 5.5156014 0 0 1 56.260132 117.03523 z M 55.565601 117.32359 A 5.5156014 5.5156014 0 0 0 55.167175 117.53908 A 5.5156014 5.5156014 0 0 1 55.565601 117.32359 z M 54.915511 117.70548 A 5.5156014 5.5156014 0 0 0 54.55791 117.96954 A 5.5156014 5.5156014 0 0 1 54.915511 117.70548 z M 54.322266 118.17315 A 5.5156014 5.5156014 0 0 0 54.014791 118.47597 A 5.5156014 5.5156014 0 0 1 54.322266 118.17315 z M 53.801884 118.71368 A 5.5156014 5.5156014 0 0 0 53.539368 119.05785 A 5.5156014 5.5156014 0 0 1 53.801884 118.71368 z M 53.362634 119.31468 A 5.5156014 5.5156014 0 0 0 53.14611 119.7007 A 5.5156014 5.5156014 0 0 1 53.362634 119.31468 z M 53.0071 119.97149 A 5.5156014 5.5156014 0 0 0 52.828817 120.43244 A 5.5156014 5.5156014 0 0 1 53.0071 119.97149 z M 52.745618 120.66189 A 5.5156014 5.5156014 0 0 0 52.577669 121.38742 A 5.5156014 5.5156014 0 0 1 52.745618 120.66189 z M 106.30462 145.80299 C 107.1362 145.80299 107.95476 145.86499 108.75564 145.98489 C 115.64002 147.01573 121.21845 152.31426 122.54394 159.07608 C 122.7404 160.07826 122.84366 161.11259 122.84366 162.16995 C 122.84366 170.51319 116.42905 177.42334 108.31432 178.41495 C 107.65483 178.49555 106.98404 178.53691 106.30462 178.53691 C 97.265278 178.53691 89.763513 171.19126 89.763513 162.16995 C 89.763513 153.14864 97.265278 145.80299 106.30462 145.80299 z M 126.82172 170.87949 C 126.44641 171.78235 126.04857 172.66683 125.62799 173.52998 C 125.55511 173.67954 125.46967 173.81631 125.39545 173.96458 C 125.89791 172.96089 126.38148 171.93853 126.82172 170.87949 z M 124.69833 175.26579 C 124.35876 175.89146 124.01502 176.5102 123.65033 177.10805 C 124.01473 176.51064 124.35901 175.89098 124.69833 175.26579 z M 122.84521 178.35552 C 122.46825 178.9237 122.08297 179.4785 121.68198 180.01537 C 122.08263 179.47891 122.46855 178.92323 122.84521 178.35552 z M 120.78849 181.15638 C 120.37087 181.66816 119.94036 182.158 119.49917 182.63433 C 119.94002 182.15832 120.37117 181.66778 120.78849 181.15638 z M 118.52145 183.65029 C 118.06125 184.10124 117.58394 184.52043 117.10035 184.93135 C 117.58363 184.52066 118.06153 184.10096 118.52145 183.65029 z M 116.0508 185.79848 C 115.5335 186.19215 114.99435 186.54157 114.45245 186.88782 C 114.99406 186.54173 115.53377 186.19193 116.0508 185.79848 z M 113.38533 187.56271 C 112.7704 187.90849 112.12847 188.1944 111.48415 188.47687 C 112.12822 188.19449 112.77063 187.90835 113.38533 187.56271 z M 110.46561 188.93937 C 110.36779 188.97605 110.26692 189.00494 110.16847 189.04014 C 110.26686 189.00496 110.36785 188.97603 110.46561 188.93937 z " />
  </g>
</svg>
