<?xml version="1.0" encoding="UTF-8" standalone="no"?>
<!-- Created with Inkscape (http://www.inkscape.org/) -->

<svg
   width="210mm"
   height="210mm"
   viewBox="0 0 210 210"
   version="1.1"
   id="svg1"
   inkscape:version="1.4.3 (0d15f75042, 2025-12-25)"
   sodipodi:docname="formsicon.svg"
   xmlns:inkscape="http://www.inkscape.org/namespaces/inkscape"
   xmlns:sodipodi="http://sodipodi.sourceforge.net/DTD/sodipodi-0.dtd"
   xmlns="http://www.w3.org/2000/svg"
   xmlns:svg="http://www.w3.org/2000/svg">
  <sodipodi:namedview
     id="namedview1"
     pagecolor="#505050"
     bordercolor="#eeeeee"
     borderopacity="1"
     inkscape:showpageshadow="0"
     inkscape:pageopacity="0"
     inkscape:pagecheckerboard="0"
     inkscape:deskcolor="#505050"
     inkscape:document-units="mm"
     inkscape:zoom="0.60804337"
     inkscape:cx="328.92391"
     inkscape:cy="500.78665"
     inkscape:window-width="1920"
     inkscape:window-height="996"
     inkscape:window-x="0"
     inkscape:window-y="0"
     inkscape:window-maximized="1"
     inkscape:current-layer="layer1" />
  <defs
     id="defs1">
    <linearGradient
       id="swatch89"
       inkscape:swatch="solid">
      <stop
         style="stop-color:#ffffff;stop-opacity:1;"
         offset="0"
         id="stop89" />
    </linearGradient>
    <clipPath
       clipPathUnits="userSpaceOnUse"
       id="clipPath5">
      <rect
         style="fill:#000000;stroke:#000000;stroke-width:0;stroke-linejoin:bevel;paint-order:stroke markers fill;stop-color:#000000"
         id="rect5-4"
         width="20"
         height="200"
         x="530"
         y="595" />
    </clipPath>
    <clipPath
       clipPathUnits="userSpaceOnUse"
       id="clipPath15">
      <rect
         style="fill:none;stroke:#000000;stroke-linecap:butt;stroke-linejoin:bevel;paint-order:stroke markers fill;stop-color:#000000"
         id="rect15-7"
         width="45.034248"
         height="38.955639"
         x="262.48285"
         y="121.00073" />
    </clipPath>
    <clipPath
       clipPathUnits="userSpaceOnUse"
       id="clipPath25">
      <rect
         style="fill:#ff0000;stroke:none;stroke-width:3;stroke-linecap:square;stroke-linejoin:miter;paint-order:stroke markers fill;stop-color:#000000"
         id="rect25-8"
         width="78"
         height="45.033199"
         x="763.61322"
         y="452.82422" />
    </clipPath>
    <clipPath
       clipPathUnits="userSpaceOnUse"
       id="clipPath24">
      <rect
         style="fill:none;stroke:#000000;stroke-width:0.999999;stroke-linecap:butt;stroke-linejoin:bevel;paint-order:stroke markers fill;stop-color:#000000"
         id="rect24"
         width="44.999748"
         height="77.937294"
         x="251.53429"
         y="222.73541" />
    </clipPath>
    <linearGradient
       id="swatch2"
       inkscape:swatch="solid">
      <stop
         style="stop-color:#ffffff;stop-opacity:1;"
         offset="0"
         id="stop2" />
    </linearGradient>
  </defs>
  <g
     inkscape:label="Layer 1"
     inkscape:groupmode="layer"
     id="layer1">
    <path
       id="path21"
       style="baseline-shift:baseline;display:inline;overflow:visible;vector-effect:none;fill:#ffffff;stroke-linecap:round;stroke-linejoin:round;enable-background:accumulate;stop-color:#000000;stop-opacity:1"
       d="M 19.986377 16.669784 A 12.831483 12.831483 0 0 0 7.1561523 29.500008 L 7.1561523 183.83219 A 12.831483 12.831483 0 0 0 19.986377 196.6619 L 119.30641 196.6619 A 12.831483 12.831483 0 0 0 132.13664 183.83219 L 132.13664 29.500008 A 12.831483 12.831483 0 0 0 119.30641 16.669784 L 19.986377 16.669784 z M 26.26558 73.83787 L 32.816602 73.83787 L 106.4767 73.83787 L 112.37505 73.83787 A 4.5086999 4.5086999 0 0 1 116.88279 78.347673 A 4.5086999 4.5086999 0 0 1 112.37505 82.855408 L 106.4767 82.855408 L 32.816602 82.855408 L 26.26558 82.855408 A 4.5086999 4.5086999 0 0 1 21.755778 78.347673 A 4.5086999 4.5086999 0 0 1 26.26558 73.83787 z M 26.26558 101.82014 L 32.816602 101.82014 L 106.4767 101.82014 L 112.37505 101.82014 A 4.5086999 4.5086999 0 0 1 116.88279 106.32994 A 4.5086999 4.5086999 0 0 1 112.37505 110.83768 L 106.4767 110.83768 L 32.816602 110.83768 L 26.26558 110.83768 A 4.5086999 4.5086999 0 0 1 21.755778 106.32994 A 4.5086999 4.5086999 0 0 1 26.26558 101.82014 z M 26.26558 129.80293 L 32.816602 129.80293 L 106.4767 129.80293 L 112.37505 129.80293 A 4.5086999 4.5086999 0 0 1 116.88279 134.31273 A 4.5086999 4.5086999 0 0 1 112.37505 138.82047 L 106.4767 138.82047 L 32.816602 138.82047 L 26.26558 138.82047 A 4.5086999 4.5086999 0 0 1 21.755778 134.31273 A 4.5086999 4.5086999 0 0 1 26.26558 129.80293 z " />
    <path
       d=""
       style="baseline-shift:baseline;display:inline;overflow:visible;vector-effect:none;stroke-linecap:round;stroke-linejoin:round;enable-background:accumulate;stop-color:#000000;stop-opacity:1"
       id="path19" />
    <path
       d=""
       style="baseline-shift:baseline;display:inline;overflow:visible;vector-effect:none;stroke-linecap:round;stroke-linejoin:round;enable-background:accumulate;stop-color:#000000;stop-opacity:1"
       id="path17" />
    <path
       d=""
       style="baseline-shift:baseline;display:inline;overflow:visible;vector-effect:none;stroke-linecap:round;stroke-linejoin:round;enable-background:accumulate;stop-color:#000000;stop-opacity:1"
       id="path15" />
    <rect
       style="fill:#ffffff;fill-opacity:1;stroke:#ffffff;stroke-width:7.5;stroke-linecap:round;stroke-linejoin:round;stroke-opacity:1"
       id="rect4"
       width="23.823856"
       height="64.618134"
       x="173.78755"
       y="-44.090481"
       transform="rotate(25)" />
    <path
       sodipodi:type="star"
       style="fill:#ffffff;fill-opacity:1;stroke:#ffffff;stroke-width:10;stroke-linecap:round;stroke-linejoin:round;stroke-opacity:1"
       id="path5"
       inkscape:flatsided="true"
       sodipodi:sides="3"
       sodipodi:cx="229.31821"
       sodipodi:cy="87.898064"
       sodipodi:r1="19.146112"
       sodipodi:r2="9.5730562"
       sodipodi:arg1="3.1415927"
       sodipodi:arg2="4.1887902"
       inkscape:rounded="-3.469447e-18"
       inkscape:randomized="0"
       d="m 210.17209,87.898063 28.71917,-16.581019 0,33.162036 z"
       inkscape:transform-center-x="-2.3071221"
       transform="matrix(0.35222965,-0.75535892,0.48164359,0.22459409,27.740539,268.35283)"
       inkscape:transform-center-y="1.7535406" />
  </g>
</svg>
