<?xml version="1.0" encoding="UTF-8" standalone="no"?>
<!-- Created with Inkscape (http://www.inkscape.org/) -->

<svg
   width="210mm"
   height="210mm"
   viewBox="0 0 210 210"
   version="1.1"
   id="svg1"
   inkscape:version="1.4.3 (0d15f75042, 2025-12-25)"
   sodipodi:docname="insuranceicon.svg"
   xmlns:inkscape="http://www.inkscape.org/namespaces/inkscape"
   xmlns:sodipodi="http://sodipodi.sourceforge.net/DTD/sodipodi-0.dtd"
   xmlns="http://www.w3.org/2000/svg"
   xmlns:svg="http://www.w3.org/2000/svg">
  <sodipodi:namedview
     id="namedview1"
     pagecolor="#505050"
     bordercolor="#eeeeee"
     borderopacity="1"
     inkscape:showpageshadow="0"
     inkscape:pageopacity="0"
     inkscape:pagecheckerboard="0"
     inkscape:deskcolor="#505050"
     inkscape:document-units="mm"
     inkscape:zoom="0.34694121"
     inkscape:cx="201.76329"
     inkscape:cy="554.84904"
     inkscape:window-width="1920"
     inkscape:window-height="996"
     inkscape:window-x="0"
     inkscape:window-y="0"
     inkscape:window-maximized="1"
     inkscape:current-layer="layer1" />
  <defs
     id="defs1">
    <linearGradient
       id="swatch89"
       inkscape:swatch="solid">
      <stop
         style="stop-color:#ffffff;stop-opacity:1;"
         offset="0"
         id="stop89" />
    </linearGradient>
    <clipPath
       clipPathUnits="userSpaceOnUse"
       id="clipPath5">
      <rect
         style="fill:#000000;stroke:#000000;stroke-width:0;stroke-linejoin:bevel;paint-order:stroke markers fill;stop-color:#000000"
         id="rect5-4"
         width="20"
         height="200"
         x="530"
         y="595" />
    </clipPath>
    <clipPath
       clipPathUnits="userSpaceOnUse"
       id="clipPath15">
      <rect
         style="fill:none;stroke:#000000;stroke-linecap:butt;stroke-linejoin:bevel;paint-order:stroke markers fill;stop-color:#000000"
         id="rect15-7"
         width="45.034248"
         height="38.955639"
         x="262.48285"
         y="121.00073" />
    </clipPath>
    <clipPath
       clipPathUnits="userSpaceOnUse"
       id="clipPath25">
      <rect
         style="fill:#ff0000;stroke:none;stroke-width:3;stroke-linecap:square;stroke-linejoin:miter;paint-order:stroke markers fill;stop-color:#000000"
         id="rect25-8"
         width="78"
         height="45.033199"
         x="763.61322"
         y="452.82422" />
    </clipPath>
    <clipPath
       clipPathUnits="userSpaceOnUse"
       id="clipPath24">
      <rect
         style="fill:none;stroke:#000000;stroke-width:0.999999;stroke-linecap:butt;stroke-linejoin:bevel;paint-order:stroke markers fill;stop-color:#000000"
         id="rect24"
         width="44.999748"
         height="77.937294"
         x="251.53429"
         y="222.73541" />
    </clipPath>
    <linearGradient
       id="swatch2"
       inkscape:swatch="solid">
      <stop
         style="stop-color:#ffffff;stop-opacity:1;"
         offset="0"
         id="stop2" />
    </linearGradient>
  </defs>
  <g
     inkscape:label="Layer 1"
     inkscape:groupmode="layer"
     id="layer1">
    <path
       id="path14"
       style="baseline-shift:baseline;display:inline;overflow:visible;vector-effect:none;fill:#ffffff;stroke-width:1.02845;stroke-linecap:round;stroke-linejoin:round;enable-background:accumulate;stop-color:#000000;stop-opacity:1"
       d="m 103.43761,9.3710042 v 1.6960608 a 6.8406842,7.2354667 0 0 0 -8.212931,1.939839 C 80.977579,34.664425 67.869062,45.73902 54.890706,51.487195 41.91235,57.23537 28.58789,57.793501 13.414168,56.825713 a 6.8406842,7.2354667 0 0 0 -7.2424517,7.600296 c 1.8169251,36.722921 9.3078347,69.446541 24.9473147,94.737241 15.639479,25.29071 39.747191,42.73831 72.523739,48.03518 a 6.8406842,7.2354667 0 0 0 2.49597,-0.77288 6.8406842,7.2354667 0 0 0 2.49804,0.77288 c 32.77654,-5.29687 56.88374,-22.74447 72.52322,-48.03518 15.63947,-25.2907 23.12832,-58.01432 24.94525,-94.737241 a 6.8406842,7.2354667 0 0 0 -7.24194,-7.600296 C 183.68959,57.793501 170.36513,57.23537 157.38678,51.487195 144.40843,45.73902 131.30196,34.664425 117.05487,13.006904 a 6.8406842,7.2354667 0 0 0 -8.17779,-1.952411 V 9.3710042 Z m 14.41514,28.1700158 5.2e-4,5.47e-4 -0.82579,39.382707 a 6.8406842,7.2354667 0 0 1 -1.93115,4.078635 6.8406842,7.2354667 0 0 0 1.93064,-4.078635 z m 45.73726,38.251272 a 10,10.57711 0 0 1 1.30845,0 10,10.57711 0 0 1 6.86522,3.57796 10,10.57711 0 0 1 -0.91984,14.925659 l -55.25555,51.291199 -0.047,2.24702 a 6.8406842,7.2354667 0 0 1 -2.18953,4.87393 6.8406842,7.2354667 0 0 0 2.18901,-4.87393 l 0.047,-2.24702 -18.53634,17.20711 h -5.16e-4 v 5.6e-4 l -5.986715,5.55715 a 10.001,10.578168 0 0 1 -14.951025,-2.13606 l -26.56427,-42.70924 a 10,10.57711 0 0 1 2.859257,-14.64854 10,10.57711 0 0 1 13.8498,3.02208 l 20.249927,32.55583 11.617895,-10.78471 5.17e-4,-5.4e-4 18.06298,-16.76712 0.21446,-10.22992 a 6.8406842,7.2354667 0 0 0 -0.078,-1.26426 c -1.20286,-8.234689 -3.74249,-16.172252 -5.08393,-22.340118 a 6.8406842,7.2354667 0 0 0 5.2e-4,0 c 1.34144,6.167866 3.88106,14.105434 5.08392,22.340118 a 6.8406842,7.2354667 0 0 1 0.078,1.26426 l -0.21445,10.22992 41.46052,-38.486303 A 10,10.57711 0 0 1 163.59,75.792292 Z M 97.333077,99.60874 c 5.44e-4,7.4e-5 10e-4,4.21e-4 0.0015,5.46e-4 -6.91e-4,-1.94e-4 -8.43e-4,-4.38e-4 -0.0015,-5.46e-4 z m 0.0031,0.0011 c 10e-4,3.53e-4 0.0021,0.0011 0.0031,0.0016 -9.4e-4,-5.41e-4 -0.0021,-0.0012 -0.0031,-0.0016 z m 0.0067,0.0038 c 0.0024,0.0019 0.0046,0.0045 0.0067,0.0077 -0.0021,-0.0032 -0.0044,-0.0056 -0.0067,-0.0077 z m 0.0093,0.01257 c 0.0015,0.0028 0.0028,0.0058 0.0041,0.0093 10e-4,0.0026 0.0022,0.0058 0.0031,0.0087 -9.62e-4,-0.0031 -0.002,-0.0061 -0.0031,-0.0087 -0.0014,-0.0036 -0.0026,-0.0065 -0.0041,-0.0093 z m 0.0088,0.02241 c 10e-4,0.0036 0.0022,0.0068 0.0031,0.01093 9.16e-4,0.0058 0.0017,0.01167 0.0026,0.01749 -0.0017,-0.01072 -0.0034,-0.02024 -0.0057,-0.02842 z m 0.7028,8.61422 c 7.15e-4,6.2e-4 0.0013,0.001 0.0021,0.002 -6.64e-4,-7.5e-4 -0.0014,-0.002 -0.0021,-0.002 z m 0.0021,0.003 c 0.0018,0.002 0.0043,0.004 0.0062,0.007 0.0013,0.003 0.0023,0.005 0.0036,0.008 -0.0035,-0.007 -0.0068,-0.0123 -0.0098,-0.0159 z m 14.609443,45.0224 a 6.8406842,7.2354667 0 0 0 5.2e-4,0 c 0.4934,3.73348 1.26309,7.58736 2.26549,11.90139 a 6.8406842,7.2354667 0 0 1 0.19534,1.88627 l -0.23048,10.94432 a 6.8406842,7.2354667 0 0 1 -1.50585,3.67525 c 0.004,0.005 0.006,0.008 0.007,0.0102 -0.002,-0.002 -0.004,-0.004 -0.008,-0.0102 a 6.8406842,7.2354667 0 0 0 1.50585,-3.67525 l 0.23047,-10.94432 a 6.8406842,7.2354667 0 0 0 -0.19533,-1.88627 c -1.0024,-4.31403 -1.7721,-8.16791 -2.2655,-11.90139 z m 0.73691,28.42144 c 0.001,0.001 0.004,0.004 0.01,0.0126 a 6.8406842,7.2354667 0 0 1 1.31413,4.42736 l -0.10542,5.03844 h -5.2e-4 l 0.10542,-5.03844 a 6.8406842,7.2354667 0 0 0 -1.31413,-4.42736 c -0.006,-0.008 -0.008,-0.0112 -0.009,-0.0126 z" />
    <rect
       style="fill:none;fill-opacity:0;stroke:#ffffff;stroke-width:11.309;stroke-linecap:round;stroke-linejoin:round;stroke-dasharray:none;stroke-opacity:1"
       id="rect14"
       width="10.392871"
       height="6.3084493"
       x="100.97992"
       y="14.390045" />
    <ellipse
       style="fill:none;fill-opacity:0;stroke:#ffffff;stroke-width:20;stroke-linecap:square;stroke-linejoin:miter;stroke-dasharray:none;stroke-opacity:1"
       id="path15"
       cx="105.6927"
       cy="191.7693"
       rx="7.904994"
       ry="5.5627737" />
  </g>
</svg>
