<?xml version="1.0" encoding="UTF-8" standalone="no"?>
<!-- Created with Inkscape (http://www.inkscape.org/) -->

<svg
   width="210mm"
   height="210mm"
   viewBox="0 0 210 210"
   version="1.1"
   id="svg1"
   inkscape:version="1.4.3 (0d15f75042, 2025-12-25)"
   sodipodi:docname="msg.svg"
   xmlns:inkscape="http://www.inkscape.org/namespaces/inkscape"
   xmlns:sodipodi="http://sodipodi.sourceforge.net/DTD/sodipodi-0.dtd"
   xmlns="http://www.w3.org/2000/svg"
   xmlns:svg="http://www.w3.org/2000/svg">
  <sodipodi:namedview
     id="namedview1"
     pagecolor="#505050"
     bordercolor="#eeeeee"
     borderopacity="1"
     inkscape:showpageshadow="0"
     inkscape:pageopacity="0"
     inkscape:pagecheckerboard="0"
     inkscape:deskcolor="#505050"
     inkscape:document-units="mm"
     inkscape:zoom="0.60804337"
     inkscape:cx="328.92391"
     inkscape:cy="592.88534"
     inkscape:window-width="1920"
     inkscape:window-height="996"
     inkscape:window-x="0"
     inkscape:window-y="0"
     inkscape:window-maximized="1"
     inkscape:current-layer="layer1" />
  <defs
     id="defs1">
    <linearGradient
       id="swatch89"
       inkscape:swatch="solid">
      <stop
         style="stop-color:#ffffff;stop-opacity:1;"
         offset="0"
         id="stop89" />
    </linearGradient>
    <clipPath
       clipPathUnits="userSpaceOnUse"
       id="clipPath5">
      <rect
         style="fill:#000000;stroke:#000000;stroke-width:0;stroke-linejoin:bevel;paint-order:stroke markers fill;stop-color:#000000"
         id="rect5-4"
         width="20"
         height="200"
         x="530"
         y="595" />
    </clipPath>
    <clipPath
       clipPathUnits="userSpaceOnUse"
       id="clipPath15">
      <rect
         style="fill:none;stroke:#000000;stroke-linecap:butt;stroke-linejoin:bevel;paint-order:stroke markers fill;stop-color:#000000"
         id="rect15-7"
         width="45.034248"
         height="38.955639"
         x="262.48285"
         y="121.00073" />
    </clipPath>
    <clipPath
       clipPathUnits="userSpaceOnUse"
       id="clipPath25">
      <rect
         style="fill:#ff0000;stroke:none;stroke-width:3;stroke-linecap:square;stroke-linejoin:miter;paint-order:stroke markers fill;stop-color:#000000"
         id="rect25-8"
         width="78"
         height="45.033199"
         x="763.61322"
         y="452.82422" />
    </clipPath>
    <clipPath
       clipPathUnits="userSpaceOnUse"
       id="clipPath24">
      <rect
         style="fill:none;stroke:#000000;stroke-width:0.999999;stroke-linecap:butt;stroke-linejoin:bevel;paint-order:stroke markers fill;stop-color:#000000"
         id="rect24"
         width="44.999748"
         height="77.937294"
         x="251.53429"
         y="222.73541" />
    </clipPath>
    <linearGradient
       id="swatch2"
       inkscape:swatch="solid">
      <stop
         style="stop-color:#ffffff;stop-opacity:1;"
         offset="0"
         id="stop2" />
    </linearGradient>
  </defs>
  <g
     inkscape:label="Layer 1"
     inkscape:groupmode="layer"
     id="layer1">
    <path
       id="path23"
       style="baseline-shift:baseline;display:inline;overflow:visible;vector-effect:none;fill:#ffffff;stroke-linecap:round;stroke-linejoin:round;enable-background:accumulate;stop-color:#000000;stop-opacity:1"
       d="M 105.73825 24.154081 C 58.883163 24.154081 19.802926 55.609071 19.802926 95.730591 C 19.802926 120.6339 34.859553 142.19813 57.485897 154.974 L 55.529427 177.33181 A 5.0005 5.0005 0 0 0 62.623051 182.29895 L 95.795186 166.83013 C 99.061901 167.14488 102.38014 167.30658 105.73825 167.30658 C 152.59334 167.30658 191.67357 135.85211 191.67357 95.730591 C 191.67357 55.609071 152.59334 24.154081 105.73825 24.154081 z M 67.470817 79.999768 C 74.125753 79.999768 79.650435 85.352904 79.650435 91.962862 C 79.650435 98.572819 74.125753 103.92389 67.470817 103.92389 C 60.815881 103.92389 55.291199 98.572819 55.291199 91.962862 C 55.291199 85.352904 60.815881 79.999768 67.470817 79.999768 z M 107.47044 79.999768 C 114.12538 79.999768 119.65058 85.352904 119.65058 91.962862 C 119.65058 98.572819 114.12538 103.92389 107.47044 103.92389 C 100.81551 103.92389 95.290824 98.572819 95.290824 91.962862 C 95.290824 85.352904 100.81551 79.999768 107.47044 79.999768 z M 147.47059 79.999768 C 154.12553 79.999768 159.6502 85.352904 159.6502 91.962862 C 159.6502 98.572819 154.12553 103.92389 147.47059 103.92389 C 140.81566 103.92389 135.29097 98.572819 135.29097 91.962862 C 135.29097 85.352904 140.81566 79.999768 147.47059 79.999768 z " />
  </g>
</svg>
