<?xml version="1.0" encoding="UTF-8" standalone="no"?>
<!-- Created with Inkscape (http://www.inkscape.org/) -->

<svg
   width="210mm"
   height="210mm"
   viewBox="0 0 210 210"
   version="1.1"
   id="svg1"
   inkscape:version="1.4.3 (0d15f75042, 2025-12-25)"
   sodipodi:docname="other.svg"
   xmlns:inkscape="http://www.inkscape.org/namespaces/inkscape"
   xmlns:sodipodi="http://sodipodi.sourceforge.net/DTD/sodipodi-0.dtd"
   xmlns="http://www.w3.org/2000/svg"
   xmlns:svg="http://www.w3.org/2000/svg">
  <sodipodi:namedview
     id="namedview1"
     pagecolor="#505050"
     bordercolor="#eeeeee"
     borderopacity="1"
     inkscape:showpageshadow="0"
     inkscape:pageopacity="0"
     inkscape:pagecheckerboard="0"
     inkscape:deskcolor="#505050"
     inkscape:document-units="mm"
     inkscape:zoom="0.61143912"
     inkscape:cx="170.09052"
     inkscape:cy="195.44055"
     inkscape:window-width="1920"
     inkscape:window-height="996"
     inkscape:window-x="0"
     inkscape:window-y="0"
     inkscape:window-maximized="1"
     inkscape:current-layer="layer1" />
  <defs
     id="defs1">
    <linearGradient
       id="swatch89"
       inkscape:swatch="solid">
      <stop
         style="stop-color:#ffffff;stop-opacity:1;"
         offset="0"
         id="stop89" />
    </linearGradient>
    <clipPath
       clipPathUnits="userSpaceOnUse"
       id="clipPath5">
      <rect
         style="fill:#000000;stroke:#000000;stroke-width:0;stroke-linejoin:bevel;paint-order:stroke markers fill;stop-color:#000000"
         id="rect5-4"
         width="20"
         height="200"
         x="530"
         y="595" />
    </clipPath>
    <clipPath
       clipPathUnits="userSpaceOnUse"
       id="clipPath15">
      <rect
         style="fill:none;stroke:#000000;stroke-linecap:butt;stroke-linejoin:bevel;paint-order:stroke markers fill;stop-color:#000000"
         id="rect15-7"
         width="45.034248"
         height="38.955639"
         x="262.48285"
         y="121.00073" />
    </clipPath>
    <clipPath
       clipPathUnits="userSpaceOnUse"
       id="clipPath25">
      <rect
         style="fill:#ff0000;stroke:none;stroke-width:3;stroke-linecap:square;stroke-linejoin:miter;paint-order:stroke markers fill;stop-color:#000000"
         id="rect25-8"
         width="78"
         height="45.033199"
         x="763.61322"
         y="452.82422" />
    </clipPath>
    <clipPath
       clipPathUnits="userSpaceOnUse"
       id="clipPath24">
      <rect
         style="fill:none;stroke:#000000;stroke-width:0.999999;stroke-linecap:butt;stroke-linejoin:bevel;paint-order:stroke markers fill;stop-color:#000000"
         id="rect24"
         width="44.999748"
         height="77.937294"
         x="251.53429"
         y="222.73541" />
    </clipPath>
    <linearGradient
       id="swatch2"
       inkscape:swatch="solid">
      <stop
         style="stop-color:#ffffff;stop-opacity:1;"
         offset="0"
         id="stop2" />
    </linearGradient>
  </defs>
  <g
     inkscape:label="Layer 1"
     inkscape:groupmode="layer"
     id="layer1">
    <path
       id="path27"
       style="baseline-shift:baseline;display:inline;overflow:visible;vector-effect:none;fill:#ffffff;stroke-width:1.27416;stroke-linecap:round;stroke-linejoin:round;enable-background:accumulate;stop-color:#000000;stop-opacity:1;fill-opacity:1"
       d="m 104.98046,4.6212527 c -55.396818,0 -101.7071158,43.6391193 -101.7071158,99.4426173 0,14.15374 2.9834933,27.52962 8.3390318,39.6095 -0.704965,-1.62776 -1.258031,-3.33664 -1.8758873,-5.01153 14.4062173,39.05218 52.7963903,65.65116 96.0113613,65.65102 54.87055,-1.6e-4 102.13948,-42.79012 102.13946,-99.64795 10e-6,-42.244586 -26.11512,-76.682974 -62.03318,-91.615544 0.31303,0.130133 0.64497,0.220545 0.95648,0.353638 -0.3577,-0.157797 -0.74076,-0.265383 -1.1006,-0.419231 -0.96783,-0.400639 -1.95765,-0.74876 -2.93938,-1.120804 C 131.02375,7.2591191 118.29356,4.6212527 104.98046,4.6212527 Z m 11.23648,0.931149 c 1.15616,0.115775 2.27948,0.3478245 3.42585,0.5012243 -1.14609,-0.1533636 -2.26995,-0.3854734 -3.42585,-0.5012243 z m 10.21674,1.5478762 c 1.34484,0.2707871 2.64759,0.6546998 3.97494,0.97678 -1.32674,-0.3219342 -2.63071,-0.7060906 -3.97494,-0.97678 z m 9.8969,2.5132475 c 1.38618,0.4237396 2.72509,0.9480236 4.08743,1.4273806 -1.36148,-0.479046 -2.70214,-1.003881 -4.08743,-1.4273806 z M 59.951883,83.050974 c 7.51524,0 13.742926,7.079928 13.742926,15.815281 0,8.735345 -6.227565,15.812435 -13.742926,15.812435 -7.515359,0 -13.743531,-7.07709 -13.743531,-15.812435 0,-8.735353 6.228293,-15.815281 13.743531,-15.815281 z m 47.066817,0 c 7.51526,0 13.74354,7.079961 13.74354,15.815281 0,8.735315 -6.22817,15.812435 -13.74354,15.812435 -7.515332,0 -13.742916,-7.07709 -13.742916,-15.812435 0,-8.735353 6.227698,-15.815281 13.742916,-15.815281 z m 47.06744,0 c 7.51526,0 13.74352,7.079928 13.74352,15.815281 0,8.735345 -6.22815,15.812435 -13.74352,15.812435 -7.51534,0 -13.74292,-7.07709 -13.74292,-15.812435 0,-8.735353 6.22769,-15.815281 13.74292,-15.815281 z M 3.6089976,104.66491 c -1.1e-6,3.52752 0.1855579,6.99994 0.539964,10.41232 -0.3544154,-3.41244 -0.5399651,-6.88469 -0.539964,-10.41232 z m 1.0641179,13.79042 c 0.3113255,2.23616 0.591945,4.48435 1.0495227,6.66278 -0.4576334,-2.17861 -0.7381693,-4.42642 -1.0495227,-6.66278 z m 2.0656023,10.53783 c 0.4907211,1.93377 0.9348517,3.8885 1.5378015,5.77012 -0.6029972,-1.88173 -1.0470485,-3.83624 -1.5378015,-5.77012 z" />
    <path
       d=""
       style="baseline-shift:baseline;display:inline;overflow:visible;vector-effect:none;fill:#4957e6;fill-rule:evenodd;stroke-linecap:round;stroke-linejoin:round;enable-background:accumulate;stop-color:#000000;stop-opacity:1"
       id="path5" />
  </g>
</svg>
