<?xml version="1.0" encoding="UTF-8" standalone="no"?>
<!-- Created with Inkscape (http://www.inkscape.org/) -->

<svg
   width="210mm"
   height="210mm"
   viewBox="0 0 210 210"
   version="1.1"
   id="svg1"
   inkscape:version="1.4.3 (0d15f75042, 2025-12-25)"
   sodipodi:docname="sadfaceblue.svg"
   xmlns:inkscape="http://www.inkscape.org/namespaces/inkscape"
   xmlns:sodipodi="http://sodipodi.sourceforge.net/DTD/sodipodi-0.dtd"
   xmlns="http://www.w3.org/2000/svg"
   xmlns:svg="http://www.w3.org/2000/svg">
  <sodipodi:namedview
     id="namedview1"
     pagecolor="#505050"
     bordercolor="#eeeeee"
     borderopacity="1"
     inkscape:showpageshadow="0"
     inkscape:pageopacity="0"
     inkscape:pagecheckerboard="0"
     inkscape:deskcolor="#505050"
     inkscape:document-units="mm"
     inkscape:zoom="0.60804337"
     inkscape:cx="328.92391"
     inkscape:cy="443.22496"
     inkscape:window-width="1920"
     inkscape:window-height="996"
     inkscape:window-x="0"
     inkscape:window-y="0"
     inkscape:window-maximized="1"
     inkscape:current-layer="layer1" />
  <defs
     id="defs1">
    <linearGradient
       id="swatch89"
       inkscape:swatch="solid">
      <stop
         style="stop-color:#ffffff;stop-opacity:1;"
         offset="0"
         id="stop89" />
    </linearGradient>
    <clipPath
       clipPathUnits="userSpaceOnUse"
       id="clipPath5">
      <rect
         style="fill:#000000;stroke:#000000;stroke-width:0;stroke-linejoin:bevel;paint-order:stroke markers fill;stop-color:#000000"
         id="rect5-4"
         width="20"
         height="200"
         x="530"
         y="595" />
    </clipPath>
    <clipPath
       clipPathUnits="userSpaceOnUse"
       id="clipPath15">
      <rect
         style="fill:none;stroke:#000000;stroke-linecap:butt;stroke-linejoin:bevel;paint-order:stroke markers fill;stop-color:#000000"
         id="rect15-7"
         width="45.034248"
         height="38.955639"
         x="262.48285"
         y="121.00073" />
    </clipPath>
    <clipPath
       clipPathUnits="userSpaceOnUse"
       id="clipPath25">
      <rect
         style="fill:#ff0000;stroke:none;stroke-width:3;stroke-linecap:square;stroke-linejoin:miter;paint-order:stroke markers fill;stop-color:#000000"
         id="rect25-8"
         width="78"
         height="45.033199"
         x="763.61322"
         y="452.82422" />
    </clipPath>
    <clipPath
       clipPathUnits="userSpaceOnUse"
       id="clipPath24">
      <rect
         style="fill:none;stroke:#000000;stroke-width:0.999999;stroke-linecap:butt;stroke-linejoin:bevel;paint-order:stroke markers fill;stop-color:#000000"
         id="rect24"
         width="44.999748"
         height="77.937294"
         x="251.53429"
         y="222.73541" />
    </clipPath>
    <linearGradient
       id="swatch2"
       inkscape:swatch="solid">
      <stop
         style="stop-color:#ffffff;stop-opacity:1;"
         offset="0"
         id="stop2" />
    </linearGradient>
  </defs>
  <g
     inkscape:label="Layer 1"
     inkscape:groupmode="layer"
     id="layer1">
    <path
       d=""
       style="baseline-shift:baseline;display:inline;overflow:visible;vector-effect:none;fill-rule:evenodd;stroke-linecap:round;stroke-linejoin:round;enable-background:accumulate;stop-color:#000000;stop-opacity:1"
       id="path24" />
    <path
       d=""
       style="baseline-shift:baseline;display:inline;overflow:visible;vector-effect:none;fill-rule:evenodd;stroke-linecap:round;stroke-linejoin:round;enable-background:accumulate;stop-color:#000000;stop-opacity:1"
       id="path22" />
    <path
       d=""
       style="baseline-shift:baseline;display:inline;overflow:visible;vector-effect:none;fill-rule:evenodd;stroke-linecap:round;stroke-linejoin:round;enable-background:accumulate;stop-color:#000000;stop-opacity:1"
       id="path20" />
    <path
       d=""
       style="baseline-shift:baseline;display:inline;overflow:visible;vector-effect:none;fill-rule:evenodd;stroke-linecap:round;stroke-linejoin:round;enable-background:accumulate;stop-color:#000000;stop-opacity:1"
       id="path18" />
    <path
       id="path44"
       style="baseline-shift:baseline;display:inline;overflow:visible;vector-effect:none;fill:#2563eb;fill-rule:evenodd;stroke-linecap:round;stroke-linejoin:round;enable-background:accumulate;stop-color:#000000;stop-opacity:1"
       d="M 104.21483 6.7479085 C 48.168814 6.7479085 2.3962362 50.214302 2.3962362 103.9983 C 2.3962362 157.7823 48.168814 201.24818 104.21483 201.24818 C 160.26085 201.24818 206.03497 157.7823 206.03497 103.9983 C 206.03497 50.214302 160.26085 6.7479085 104.21483 6.7479085 z M 138.11973 22.869405 C 143.35894 24.844233 148.35859 27.263393 153.06818 30.077751 C 148.35859 27.263383 143.35895 24.84424 138.11973 22.869405 z M 139.61732 49.257975 C 151.31685 49.257975 160.71887 59.127114 160.71887 70.793095 C 160.71887 82.459075 151.31685 92.328215 139.61732 92.328215 C 127.91778 92.328215 118.51783 82.459075 118.51783 70.793095 C 118.51783 59.127114 127.91778 49.257975 139.61732 49.257975 z M 67.142672 49.824349 C 78.842206 49.824349 88.242159 59.693489 88.242159 71.359469 C 88.24216 83.025449 78.842206 92.894588 67.142672 92.894588 C 55.443138 92.894588 46.043184 83.025449 46.043184 71.359469 C 46.043184 59.693489 55.443138 49.824349 67.142672 49.824349 z M 26.38857 57.64506 C 23.431466 62.124439 20.890843 66.876813 18.817973 71.852979 C 20.890836 66.876821 23.431476 62.124434 26.38857 57.64506 z M 104.23446 128.81436 C 117.15218 128.61675 129.0655 131.74482 138.20913 137.30066 C 147.35277 142.8565 153.96435 151.14629 154.67583 161.02531 A 5.0005 5.0005 0 0 1 149.83995 166.38261 L 105.5057 167.74015 A 5.0005 5.0005 0 0 1 105.35171 167.74222 L 60.968888 167.74222 A 5.0005 5.0005 0 0 1 55.968677 162.742 C 55.968677 152.84302 62.039614 144.22761 70.826168 138.36313 C 79.612721 132.49865 91.316744 129.01197 104.23446 128.81436 z " />
  </g>
</svg>
