<?xml version="1.0" encoding="UTF-8" standalone="no"?>
<!-- Created with Inkscape (http://www.inkscape.org/) -->

<svg
   width="210mm"
   height="210mm"
   viewBox="0 0 210 210"
   version="1.1"
   id="svg1"
   inkscape:version="1.4.3 (0d15f75042, 2025-12-25)"
   sodipodi:docname="tag.svg"
   xmlns:inkscape="http://www.inkscape.org/namespaces/inkscape"
   xmlns:sodipodi="http://sodipodi.sourceforge.net/DTD/sodipodi-0.dtd"
   xmlns="http://www.w3.org/2000/svg"
   xmlns:svg="http://www.w3.org/2000/svg">
  <sodipodi:namedview
     id="namedview1"
     pagecolor="#505050"
     bordercolor="#eeeeee"
     borderopacity="1"
     inkscape:showpageshadow="0"
     inkscape:pageopacity="0"
     inkscape:pagecheckerboard="0"
     inkscape:deskcolor="#505050"
     inkscape:document-units="mm"
     inkscape:zoom="0.52715888"
     inkscape:cx="292.13204"
     inkscape:cy="473.29185"
     inkscape:window-width="1920"
     inkscape:window-height="996"
     inkscape:window-x="0"
     inkscape:window-y="0"
     inkscape:window-maximized="1"
     inkscape:current-layer="layer1" />
  <defs
     id="defs1">
    <linearGradient
       id="swatch89"
       inkscape:swatch="solid">
      <stop
         style="stop-color:#ffffff;stop-opacity:1;"
         offset="0"
         id="stop89" />
    </linearGradient>
    <clipPath
       clipPathUnits="userSpaceOnUse"
       id="clipPath5">
      <rect
         style="fill:#000000;stroke:#000000;stroke-width:0;stroke-linejoin:bevel;paint-order:stroke markers fill;stop-color:#000000"
         id="rect5-4"
         width="20"
         height="200"
         x="530"
         y="595" />
    </clipPath>
    <clipPath
       clipPathUnits="userSpaceOnUse"
       id="clipPath15">
      <rect
         style="fill:none;stroke:#000000;stroke-linecap:butt;stroke-linejoin:bevel;paint-order:stroke markers fill;stop-color:#000000"
         id="rect15-7"
         width="45.034248"
         height="38.955639"
         x="262.48285"
         y="121.00073" />
    </clipPath>
    <clipPath
       clipPathUnits="userSpaceOnUse"
       id="clipPath25">
      <rect
         style="fill:#ff0000;stroke:none;stroke-width:3;stroke-linecap:square;stroke-linejoin:miter;paint-order:stroke markers fill;stop-color:#000000"
         id="rect25-8"
         width="78"
         height="45.033199"
         x="763.61322"
         y="452.82422" />
    </clipPath>
    <clipPath
       clipPathUnits="userSpaceOnUse"
       id="clipPath24">
      <rect
         style="fill:none;stroke:#000000;stroke-width:0.999999;stroke-linecap:butt;stroke-linejoin:bevel;paint-order:stroke markers fill;stop-color:#000000"
         id="rect24"
         width="44.999748"
         height="77.937294"
         x="251.53429"
         y="222.73541" />
    </clipPath>
    <linearGradient
       id="swatch2"
       inkscape:swatch="solid">
      <stop
         style="stop-color:#ffffff;stop-opacity:1;"
         offset="0"
         id="stop2" />
    </linearGradient>
  </defs>
  <g
     inkscape:label="Layer 1"
     inkscape:groupmode="layer"
     id="layer1">
    <path
       id="path13"
       style="baseline-shift:baseline;display:inline;overflow:visible;vector-effect:none;fill:#ffffff;stroke-linecap:round;stroke-linejoin:round;enable-background:accumulate;stop-color:#000000;stop-opacity:1"
       d="M 10.13995 15.778365 A 7.5126511 7.5126511 0 0 0 3.113505 24.904423 L 21.650358 108.85175 A 7.5118999 7.5118999 0 0 0 26.398905 114.26848 A 7.5118999 7.5118999 0 0 1 25.987044 114.11913 A 11.535253 11.535253 0 0 0 27.083618 115.22501 L 126.31839 202.63208 A 11.535253 11.535253 0 0 0 142.5975 201.60165 L 204.5131 131.30775 A 11.535253 11.535253 0 0 0 203.48164 115.0276 L 104.24687 27.620536 A 11.535253 11.535253 0 0 0 101.42947 25.790674 A 7.5118999 7.5118999 0 0 1 101.44084 25.802559 A 7.5118999 7.5118999 0 0 0 97.041105 23.837821 L 11.148674 15.80472 A 7.5126511 7.5126511 0 0 0 10.13995 15.778365 z M 101.76381 26.141557 A 7.5118999 7.5118999 0 0 1 102.11728 26.515177 A 7.5118999 7.5118999 0 0 0 101.76381 26.141557 z M 102.39272 26.893449 A 7.5118999 7.5118999 0 0 1 102.69709 27.314095 A 7.5118999 7.5118999 0 0 0 102.39272 26.893449 z M 102.9255 27.734224 A 7.5118999 7.5118999 0 0 1 103.16476 28.176575 A 7.5118999 7.5118999 0 0 0 102.9255 27.734224 z M 103.38284 28.744499 A 7.5118999 7.5118999 0 0 1 103.51668 29.095898 A 7.5118999 7.5118999 0 0 0 103.38284 28.744499 z M 103.67274 29.745988 A 7.5118999 7.5118999 0 0 1 103.74612 30.052946 A 7.5118999 7.5118999 0 0 0 103.67274 29.745988 z M 103.80917 30.659111 A 7.5118999 7.5118999 0 0 1 103.84792 31.034281 A 7.5118999 7.5118999 0 0 0 103.80917 30.659111 z M 51.994242 37.494352 C 56.736266 37.494352 61.173086 38.630021 65.03324 41.125138 C 68.893394 43.620255 72.611072 48.209273 72.611072 54.13468 C 72.611072 55.911178 72.276655 57.567634 71.704667 59.083732 L 71.704667 59.084249 L 71.70415 59.084249 C 70.368228 62.624703 67.735917 65.399339 65.03324 67.146289 C 64.689583 67.368421 64.341465 67.579641 63.988859 67.780359 C 60.380785 69.834226 56.3141 70.775525 51.994242 70.775525 C 47.252217 70.775525 42.815399 69.641407 38.955245 67.146289 C 35.095091 64.651172 31.376896 60.060087 31.376896 54.13468 C 31.376896 48.209273 35.095091 43.620255 38.955245 41.125138 C 42.815399 38.630021 47.252217 37.494352 51.994242 37.494352 z M 26.79578 114.41214 A 7.5118999 7.5118999 0 0 0 27.343034 114.5465 A 7.5118999 7.5118999 0 0 1 26.79578 114.41214 z M 30.605367 114.56665 A 7.5118999 7.5118999 0 0 1 29.653487 114.71238 A 7.5118999 7.5118999 0 0 0 30.605367 114.56665 z M 27.731124 114.63435 A 7.5118999 7.5118999 0 0 0 28.314551 114.69894 A 7.5118999 7.5118999 0 0 1 27.731124 114.63435 z M 29.326892 114.72168 A 7.5118999 7.5118999 0 0 1 28.691272 114.73512 A 7.5118999 7.5118999 0 0 0 29.326892 114.72168 z " />
    <path
       d=""
       style="baseline-shift:baseline;display:inline;overflow:visible;vector-effect:none;fill-rule:evenodd;stroke-linecap:round;stroke-linejoin:round;enable-background:accumulate;stop-color:#000000;stop-opacity:1"
       id="path9" />
  </g>
</svg>
